<svg width="29" height="22" viewBox="0 0 29 22" fill="none" xmlns="http://www.w3.org/2000/svg">
<path d="M5.16791 19.8577C5.33223 20.0342 5.41264 20.2814 5.41264 20.6062V21.9655H4.93367V20.6557C4.93367 20.4508 4.88472 20.2955 4.78334 20.1825C4.68195 20.0695 4.54561 20.0166 4.3673 20.0166C4.17852 20.0166 4.03168 20.0766 3.9198 20.1967C3.80793 20.3167 3.75548 20.4932 3.75548 20.7227V21.9655H3.28001V20.6557C3.28001 20.4508 3.23107 20.2955 3.12968 20.1825C3.02829 20.0695 2.88845 20.0166 2.71365 20.0166C2.52486 20.0166 2.37802 20.0766 2.26614 20.1967C2.15427 20.3167 2.10182 20.4932 2.10182 20.7227V21.9655H1.62286V19.6317H2.10182V20.1189C2.16126 19.9495 2.25915 19.8189 2.3955 19.7306C2.53184 19.6388 2.69267 19.5964 2.87796 19.5964C3.07025 19.5964 3.23806 19.6459 3.3779 19.7412C3.51775 19.8365 3.62264 19.9742 3.68556 20.1578C3.75199 19.9813 3.86037 19.8471 4.0072 19.7482C4.15404 19.6494 4.32186 19.6 4.51065 19.6C4.78683 19.5929 5.00709 19.6811 5.16791 19.8577Z" fill="white"/>
<path d="M7.64245 19.7588C7.78929 19.8648 7.89418 20.0025 7.95711 20.1755V19.6317H8.43609V21.9655H7.95711V21.4218C7.89418 21.5948 7.78929 21.7325 7.64245 21.8384C7.49562 21.9443 7.31382 21.9937 7.10405 21.9937C6.90128 21.9937 6.72297 21.9443 6.56565 21.849C6.40833 21.7537 6.28247 21.6159 6.19507 21.4324C6.10416 21.2523 6.06221 21.0369 6.06221 20.7933C6.06221 20.5497 6.10766 20.3378 6.19507 20.1578C6.28597 19.9778 6.40833 19.84 6.56565 19.7412C6.72297 19.6459 6.90478 19.5964 7.10405 19.5964C7.31382 19.6035 7.49562 19.6564 7.64245 19.7588ZM6.74395 20.2319C6.61809 20.3697 6.55167 20.5568 6.55167 20.7969C6.55167 21.0369 6.6146 21.2241 6.74395 21.3618C6.86981 21.4995 7.04112 21.5665 7.25439 21.5665C7.38724 21.5665 7.5096 21.5348 7.61448 21.4712C7.71937 21.4077 7.80327 21.3194 7.8662 21.2029C7.92913 21.0864 7.95711 20.9522 7.95711 20.7969C7.95711 20.645 7.92564 20.5109 7.8662 20.3908C7.80327 20.2743 7.71937 20.1825 7.61448 20.1189C7.5096 20.0554 7.38724 20.0236 7.25439 20.0236C7.04112 20.0272 6.86981 20.0942 6.74395 20.2319Z" fill="white"/>
<path d="M10.6352 19.8116C10.7995 19.9528 10.8974 20.1399 10.9358 20.373H10.4814C10.4603 20.2459 10.4079 20.1434 10.3205 20.0658C10.2331 19.9881 10.1143 19.9493 9.97094 19.9493C9.85209 19.9493 9.75765 19.9775 9.69122 20.0375C9.6248 20.094 9.59334 20.1753 9.59334 20.2741C9.59334 20.3483 9.61783 20.4082 9.66329 20.4506C9.70875 20.493 9.77165 20.5318 9.8416 20.5565C9.91148 20.5813 10.0129 20.6095 10.1457 20.6413C10.3205 20.6802 10.4603 20.7225 10.5688 20.7649C10.6772 20.8072 10.7681 20.8743 10.845 20.9661C10.9219 21.0579 10.9603 21.1815 10.9603 21.3404C10.9603 21.5346 10.8869 21.6935 10.7401 21.8135C10.5932 21.9336 10.3939 21.9971 10.1457 21.9971C9.85905 21.9971 9.6248 21.93 9.44648 21.7923C9.26824 21.6546 9.16332 21.4675 9.1249 21.2238H9.58982C9.60383 21.3509 9.65977 21.4534 9.75765 21.5346C9.85553 21.6122 9.98494 21.6546 10.1422 21.6546C10.2576 21.6546 10.3485 21.6229 10.4114 21.5628C10.4779 21.5028 10.5093 21.4251 10.5093 21.3333C10.5093 21.2521 10.4848 21.1851 10.4324 21.1391C10.3834 21.0897 10.3205 21.0544 10.2436 21.0261C10.1667 20.9979 10.0653 20.9732 9.93244 20.945C9.76469 20.9061 9.62831 20.8672 9.52339 20.8249C9.41855 20.7825 9.32763 20.7225 9.25424 20.6307C9.18077 20.5424 9.14235 20.4224 9.14235 20.267C9.14235 20.0693 9.21575 19.9105 9.3626 19.7869C9.50946 19.6633 9.71219 19.6033 9.97438 19.6033C10.2541 19.6033 10.4708 19.6704 10.6352 19.8116Z" fill="white"/>
<path d="M12.8072 21.549V21.9692H12.5135C12.2687 21.9692 12.0799 21.9092 11.9541 21.7891C11.8282 21.6691 11.7618 21.4679 11.7618 21.1889V20.045H11.4296V19.6354H11.7618V19.0564H12.2443V19.6354H12.8037V20.045H12.2443V21.1959C12.2443 21.3301 12.2687 21.422 12.3177 21.4714C12.3666 21.5208 12.4541 21.549 12.5764 21.549H12.8072Z" fill="white"/>
<path d="M15.5953 20.8955H13.8158C13.8228 21.1356 13.8893 21.3121 14.0116 21.4287C14.1339 21.5451 14.2878 21.6017 14.4696 21.6017C14.6304 21.6017 14.7632 21.5593 14.8751 21.4781C14.987 21.3968 15.0534 21.2874 15.0779 21.1532H15.5884C15.5568 21.3157 15.4939 21.4639 15.3961 21.591C15.2982 21.7182 15.1723 21.817 15.015 21.8912C14.8577 21.9618 14.6829 22.0006 14.4906 22.0006C14.2668 22.0006 14.0675 21.9512 13.8962 21.8558C13.7249 21.7605 13.5886 21.6229 13.4907 21.4392C13.3928 21.2592 13.3438 21.0438 13.3438 20.8002C13.3438 20.5565 13.3928 20.3447 13.4907 20.1646C13.5886 19.9846 13.7249 19.8469 13.8962 19.748C14.0675 19.6527 14.2668 19.6033 14.4906 19.6033C14.7178 19.6033 14.9136 19.6492 15.0849 19.7445C15.2527 19.8398 15.3856 19.9704 15.4765 20.1329C15.5674 20.2988 15.6128 20.4824 15.6128 20.6872C15.6128 20.7649 15.6058 20.8355 15.5953 20.8955ZM15.0534 20.2918C14.9975 20.1893 14.9171 20.1117 14.8192 20.0623C14.7213 20.0128 14.6129 19.9881 14.4941 19.9881C14.3053 19.9881 14.1515 20.0446 14.0256 20.1611C13.8997 20.2776 13.8298 20.4471 13.8193 20.673H15.1339C15.1373 20.5212 15.1094 20.3942 15.0534 20.2918Z" fill="white"/>
<path d="M17.0969 19.7271C17.2438 19.6389 17.4116 19.593 17.6004 19.593V20.1191H17.4571C17.2473 20.1191 17.0795 20.1721 16.9501 20.2744C16.8207 20.3768 16.7578 20.5463 16.7578 20.7864V21.9691H16.2789V19.6354H16.7578V20.0944C16.8383 19.9355 16.9501 19.8154 17.0969 19.7271Z" fill="white"/>
<path d="M19.9418 19.84C20.1376 19.9989 20.2599 20.2179 20.3054 20.4897H19.7984C19.7705 20.3414 19.7041 20.2284 19.5957 20.1436C19.4873 20.0589 19.3545 20.0201 19.1901 20.0201C19.0048 20.0201 18.851 20.0872 18.7286 20.2179C18.6063 20.3485 18.5434 20.5426 18.5434 20.7969C18.5434 21.0511 18.6063 21.2452 18.7286 21.3759C18.851 21.51 19.0048 21.5736 19.1901 21.5736C19.351 21.5736 19.4873 21.5312 19.5957 21.4465C19.7041 21.3618 19.7705 21.2452 19.7984 21.1005H20.3054C20.2565 21.3759 20.1376 21.5912 19.9418 21.7537C19.746 21.9161 19.4978 21.9937 19.2006 21.9937C18.9769 21.9937 18.7776 21.9443 18.6063 21.849C18.435 21.7537 18.2986 21.6159 18.2007 21.4324C18.1029 21.2523 18.0539 21.0369 18.0539 20.7933C18.0539 20.5497 18.1029 20.3378 18.2007 20.1578C18.2986 19.9778 18.435 19.84 18.6063 19.7412C18.7776 19.6459 18.9769 19.5964 19.2006 19.5964C19.4978 19.6035 19.746 19.6811 19.9418 19.84Z" fill="white"/>
<path d="M22.4339 19.7588C22.5807 19.8648 22.6856 20.0025 22.7485 20.1755V19.6317H23.2275V21.9655H22.7485V21.4218C22.6856 21.5948 22.5807 21.7325 22.4339 21.8384C22.287 21.9443 22.1052 21.9937 21.8955 21.9937C21.6927 21.9937 21.5144 21.9443 21.357 21.849C21.1997 21.7537 21.0739 21.6159 20.9865 21.4324C20.8955 21.2523 20.8536 21.0369 20.8536 20.7933C20.8536 20.5497 20.8991 20.3378 20.9865 20.1578C21.0774 19.9778 21.1997 19.84 21.357 19.7412C21.5144 19.6459 21.6962 19.5964 21.8955 19.5964C22.1087 19.6035 22.287 19.6564 22.4339 19.7588ZM21.5353 20.2319C21.4095 20.3697 21.3431 20.5568 21.3431 20.7969C21.3431 21.0369 21.406 21.2241 21.5353 21.3618C21.6612 21.4995 21.8325 21.5665 22.0458 21.5665C22.1786 21.5665 22.301 21.5348 22.4059 21.4712C22.5108 21.4077 22.5947 21.3194 22.6576 21.2029C22.7205 21.0864 22.7485 20.9522 22.7485 20.7969C22.7485 20.645 22.717 20.5109 22.6576 20.3908C22.5947 20.2743 22.5108 20.1825 22.4059 20.1189C22.301 20.0554 22.1786 20.0236 22.0458 20.0236C21.8325 20.0272 21.6612 20.0942 21.5353 20.2319Z" fill="white"/>
<path d="M24.8349 19.7271C24.9818 19.6389 25.1496 19.593 25.3384 19.593V20.1191H25.195C24.9852 20.1191 24.8175 20.1721 24.6881 20.2744C24.5587 20.3768 24.4958 20.5463 24.4958 20.7864V21.9691H24.0168V19.6354H24.4958V20.0944C24.5797 19.9355 24.6916 19.8154 24.8349 19.7271Z" fill="white"/>
<path d="M27.3681 19.7588C27.515 19.8647 27.6199 20.0024 27.6793 20.1754V18.8337H28.1618V21.969H27.6793V21.4253C27.6199 21.5983 27.5185 21.736 27.3681 21.8419C27.2213 21.9478 27.0395 21.9973 26.8297 21.9973C26.627 21.9973 26.4487 21.9478 26.2913 21.8525C26.134 21.7572 26.0082 21.6195 25.9208 21.4359C25.8299 21.2558 25.7879 21.0405 25.7879 20.7969C25.7879 20.5532 25.8334 20.3414 25.9208 20.1613C26.0116 19.9812 26.134 19.8435 26.2913 19.7447C26.4487 19.6493 26.6305 19.5999 26.8297 19.5999C27.0395 19.6034 27.2213 19.6564 27.3681 19.7588ZM26.4697 20.2319C26.3438 20.3696 26.2773 20.5568 26.2773 20.7969C26.2773 21.0369 26.3403 21.224 26.4697 21.3617C26.5956 21.4995 26.7668 21.5666 26.9801 21.5666C27.113 21.5666 27.2353 21.5347 27.3402 21.4712C27.4451 21.4076 27.529 21.3193 27.5919 21.2029C27.6548 21.0864 27.6828 20.9522 27.6828 20.7969C27.6828 20.645 27.6514 20.5109 27.5919 20.3908C27.529 20.2743 27.4451 20.1825 27.3402 20.119C27.2353 20.0554 27.113 20.0236 26.9801 20.0236C26.7668 20.0272 26.5956 20.0943 26.4697 20.2319Z" fill="white"/>
<path d="M9.55359 17.5032C14.3394 17.5032 18.2191 13.5852 18.2191 8.75197C18.2191 3.91879 14.3394 0.000732422 9.55359 0.000732422C4.7678 0.000732422 0.888123 3.91879 0.888123 8.75197C0.888123 13.5852 4.7678 17.5032 9.55359 17.5032Z" fill="#EC001B"/>
<path d="M20.2227 17.5032C25.0086 17.5032 28.8882 13.5852 28.8882 8.75197C28.8882 3.91879 25.0086 0.000732422 20.2227 0.000732422C15.4369 0.000732422 11.5573 3.91879 11.5573 8.75197C11.5573 13.5852 15.4369 17.5032 20.2227 17.5032Z" fill="#F89D1B"/>
<path d="M11.5573 8.75207C11.5573 11.5515 12.8611 14.0437 14.8885 15.6464C14.4306 16.01 13.9342 16.3242 13.4099 16.5889C16.2588 15.1557 18.2198 12.1869 18.2198 8.75207C18.2198 5.95264 16.9159 3.46036 14.8885 1.85767C12.8611 3.46036 11.5573 5.95264 11.5573 8.75207Z" fill="#FF5F00"/>
</svg>
