<?xml version="1.0" encoding="UTF-8"?>
<!DOCTYPE svg PUBLIC "-//W3C//DTD SVG 1.1//EN" "http://www.w3.org/Graphics/SVG/1.1/DTD/svg11.dtd">
<svg xmlns="http://www.w3.org/2000/svg" version="1.1" width="1600px" height="425px" style="shape-rendering:geometricPrecision; text-rendering:geometricPrecision; image-rendering:optimizeQuality; fill-rule:evenodd; clip-rule:evenodd" xmlns:xlink="http://www.w3.org/1999/xlink">
<g><path style="opacity:0.994" fill="#002f87" d="M 56.5,-0.5 C 106.167,-0.5 155.833,-0.5 205.5,-0.5C 244.773,5.60075 272.273,26.9341 288,63.5C 291.542,74.2161 293.376,85.2161 293.5,96.5C 293.167,96.5 292.833,96.5 292.5,96.5C 279.528,90.3392 265.861,86.5059 251.5,85C 211.167,84.3333 170.833,84.3333 130.5,85C 125.08,87.3234 122.246,91.4901 122,97.5C 115.887,136.344 109.721,175.177 103.5,214C 103.528,215.07 103.861,215.903 104.5,216.5C 103.069,218.189 102.236,220.189 102,222.5C 96.3327,258.836 90.6661,295.169 85,331.5C 84.7206,334.457 83.8873,337.123 82.5,339.5C 57.1645,339.667 31.8311,339.5 6.5,339C 3.37935,338.033 1.04602,336.2 -0.5,333.5C -0.5,329.5 -0.5,325.5 -0.5,321.5C 16.3083,218.025 32.8083,114.358 49,10.5C 49.7639,5.58239 52.2639,1.91572 56.5,-0.5 Z"/></g>
<g><path style="opacity:0.987" fill="#003087" d="M 509.5,83.5 C 540.502,83.3334 571.502,83.5 602.5,84C 633.77,86.2045 657.27,100.705 673,127.5C 688.756,173.901 676.923,211.734 637.5,241C 621.676,251.163 604.343,256.496 585.5,257C 570.167,257.333 554.833,257.667 539.5,258C 538.692,258.308 538.025,258.808 537.5,259.5C 532.693,283.675 528.526,308.008 525,332.5C 524.55,334.519 523.717,336.352 522.5,338C 505.258,339.638 487.925,339.971 470.5,339C 467.523,337.855 465.856,335.688 465.5,332.5C 478.549,251.537 491.383,170.537 504,89.5C 504.727,86.3091 506.561,84.3091 509.5,83.5 Z M 555.5,138.5 C 567.838,138.333 580.171,138.5 592.5,139C 609.953,139.79 619.62,148.79 621.5,166C 618.634,188.196 605.968,200.196 583.5,202C 570.838,202.5 558.171,202.667 545.5,202.5C 548.833,181.169 552.166,159.836 555.5,138.5 Z"/></g>
<g><path style="opacity:0.994" fill="#006fe0" d="M 1127.5,83.5 C 1158.5,83.3334 1189.5,83.5 1220.5,84C 1254.93,86.6142 1279.43,103.448 1294,134.5C 1305.02,178.632 1292.18,214.132 1255.5,241C 1239.68,251.163 1222.34,256.496 1203.5,257C 1188.17,257.333 1172.83,257.667 1157.5,258C 1156.69,258.308 1156.03,258.808 1155.5,259.5C 1150.69,283.675 1146.53,308.008 1143,332.5C 1142.55,334.519 1141.72,336.352 1140.5,338C 1123.26,339.638 1105.92,339.971 1088.5,339C 1085.52,337.855 1083.86,335.688 1083.5,332.5C 1096.34,250.437 1109.51,168.437 1123,86.5C 1124.41,85.2189 1125.91,84.2189 1127.5,83.5 Z M 1173.5,138.5 C 1188.21,138.127 1202.87,138.627 1217.5,140C 1234.67,145.153 1241.5,156.653 1238,174.5C 1232.24,191.983 1220.07,201.15 1201.5,202C 1188.84,202.5 1176.17,202.667 1163.5,202.5C 1166.83,181.164 1170.17,159.831 1173.5,138.5 Z"/></g>
<g><path style="opacity:0.992" fill="#006fe0" d="M 1599.5,86.5 C 1599.5,90.1667 1599.5,93.8333 1599.5,97.5C 1586.73,176.715 1573.9,256.049 1561,335.5C 1560.5,337.333 1559.33,338.5 1557.5,339C 1540.83,339.667 1524.17,339.667 1507.5,339C 1504.52,337.855 1502.86,335.688 1502.5,332.5C 1515.53,250.466 1528.7,168.466 1542,86.5C 1543.17,85.1068 1544.67,84.2735 1546.5,84C 1562.83,83.3333 1579.17,83.3333 1595.5,84C 1596.98,84.6622 1598.32,85.4955 1599.5,86.5 Z"/></g>
<g><path style="opacity:1" fill="#001c64" d="M 292.5,96.5 C 288.309,146.829 263.309,182.329 217.5,203C 206.529,207.194 195.196,209.861 183.5,211C 159.167,211.333 134.833,211.667 110.5,212C 107.894,212.792 105.894,214.292 104.5,216.5C 103.861,215.903 103.528,215.07 103.5,214C 109.721,175.177 115.887,136.344 122,97.5C 122.246,91.4901 125.08,87.3234 130.5,85C 170.833,84.3333 211.167,84.3333 251.5,85C 265.861,86.5059 279.528,90.3392 292.5,96.5 Z"/></g>
<g><path style="opacity:0.997" fill="#006fdf" d="M 292.5,96.5 C 292.833,96.5 293.167,96.5 293.5,96.5C 329.646,116.78 346.48,147.78 344,189.5C 334.085,249.415 299.252,284.915 239.5,296C 221.833,296.333 204.167,296.667 186.5,297C 180.447,298.053 176.613,301.553 175,307.5C 169.426,343.515 163.76,379.515 158,415.5C 156.116,420.561 152.616,423.561 147.5,424.5C 125.167,424.5 102.833,424.5 80.5,424.5C 75.0085,422.998 72.0085,419.331 71.5,413.5C 75.3858,388.853 79.0525,364.187 82.5,339.5C 83.8873,337.123 84.7206,334.457 85,331.5C 90.6661,295.169 96.3327,258.836 102,222.5C 102.236,220.189 103.069,218.189 104.5,216.5C 105.894,214.292 107.894,212.792 110.5,212C 134.833,211.667 159.167,211.333 183.5,211C 195.196,209.861 206.529,207.194 217.5,203C 263.309,182.329 288.309,146.829 292.5,96.5 Z"/></g>
<g><path style="opacity:0.986" fill="#003087" d="M 759.5,154.5 C 783.823,151.667 805.323,158 824,173.5C 824.061,168.724 825.561,164.557 828.5,161C 845.167,160.333 861.833,160.333 878.5,161C 880.954,162.818 881.954,165.318 881.5,168.5C 873.14,223.186 864.64,277.853 856,332.5C 855.55,334.519 854.717,336.352 853.5,338C 836.925,339.637 820.258,339.97 803.5,339C 802.069,338.535 800.903,337.701 800,336.5C 799.667,333.5 799.333,330.5 799,327.5C 767.215,348.27 735.049,348.77 702.5,329C 680.558,311.78 669.558,289.113 669.5,261C 672.751,202.558 702.751,167.058 759.5,154.5 Z M 766.5,207.5 C 798.924,207.418 813.757,223.418 811,255.5C 802.494,281.995 784.327,294.162 756.5,292C 733.895,286.296 723.395,271.796 725,248.5C 730.133,225.866 743.966,212.2 766.5,207.5 Z"/></g>
<g><path style="opacity:0.993" fill="#006fe0" d="M 1377.5,154.5 C 1401.83,151.668 1423.33,158.001 1442,173.5C 1442.06,168.724 1443.56,164.557 1446.5,161C 1463.17,160.333 1479.83,160.333 1496.5,161C 1497.31,161.308 1497.97,161.808 1498.5,162.5C 1499.59,166.108 1499.76,169.775 1499,173.5C 1490.67,226.167 1482.33,278.833 1474,331.5C 1473.7,333.888 1472.86,336.055 1471.5,338C 1454.93,339.637 1438.26,339.97 1421.5,339C 1420.07,338.535 1418.9,337.701 1418,336.5C 1417.67,333.5 1417.33,330.5 1417,327.5C 1385.22,348.27 1353.05,348.77 1320.5,329C 1298.57,311.811 1287.57,289.145 1287.5,261C 1288.14,225.391 1302.14,196.391 1329.5,174C 1344.18,164.057 1360.18,157.557 1377.5,154.5 Z M 1384.5,207.5 C 1411.33,206.064 1426.66,218.564 1430.5,245C 1426.12,277.72 1407.45,293.387 1374.5,292C 1351.89,286.296 1341.39,271.796 1343,248.5C 1348.13,225.866 1361.97,212.2 1384.5,207.5 Z"/></g>
<g><path style="opacity:0.987" fill="#002f87" d="M 898.5,160.5 C 916.503,160.333 934.503,160.5 952.5,161C 953,161.5 953.5,162 954,162.5C 963.273,191.484 972.439,220.484 981.5,249.5C 998.333,221.167 1015.17,192.833 1032,164.5C 1033.17,163.333 1034.33,162.167 1035.5,161C 1054.83,160.333 1074.17,160.333 1093.5,161C 1095.99,163.968 1096.16,167.135 1094,170.5C 1051.33,241.167 1008.67,311.833 966,382.5C 964.542,384.96 962.709,387.127 960.5,389C 941.167,389.667 921.833,389.667 902.5,389C 900.009,386.032 899.843,382.865 902,379.5C 915.833,357.167 929.667,334.833 943.5,312.5C 927.901,264.87 912.401,217.203 897,169.5C 896.068,166.177 896.568,163.177 898.5,160.5 Z"/></g>
</svg>
