<svg width="200" height="70" viewBox="0 0 200 70" fill="none" xmlns="http://www.w3.org/2000/svg">
<rect x="1.5" y="1.5" width="197" height="67" rx="8.5" fill="#262729" stroke="#535456" stroke-width="3"/>
<path d="M81.4 25.168C81.4 25.7387 81.2827 26.2373 81.048 26.664C80.8187 27.0853 80.48 27.4133 80.032 27.648C79.5893 27.8827 79.0587 28 78.44 28H76.552V22.352H78.44C79.0587 22.352 79.5893 22.4693 80.032 22.704C80.48 22.9333 80.8187 23.2587 81.048 23.68C81.2827 24.1013 81.4 24.5973 81.4 25.168ZM78.368 27.176C79.0453 27.176 79.5653 27 79.928 26.648C80.2907 26.296 80.472 25.8027 80.472 25.168C80.472 24.5333 80.2907 24.04 79.928 23.688C79.5653 23.336 79.0453 23.16 78.368 23.16H77.464V27.176H78.368ZM84.3336 23.536C84.7603 23.536 85.1443 23.6267 85.4856 23.808C85.827 23.9893 86.0936 24.2507 86.2856 24.592C86.4776 24.9333 86.5736 25.3333 86.5736 25.792C86.5736 26.256 86.4776 26.6587 86.2856 27C86.0936 27.3413 85.827 27.6027 85.4856 27.784C85.1443 27.9653 84.7603 28.056 84.3336 28.056C83.907 28.056 83.523 27.9653 83.1816 27.784C82.8456 27.6027 82.579 27.3413 82.3816 27C82.1896 26.6533 82.0936 26.2507 82.0936 25.792C82.0936 25.3333 82.1896 24.9333 82.3816 24.592C82.579 24.2507 82.8456 23.9893 83.1816 23.808C83.523 23.6267 83.907 23.536 84.3336 23.536ZM84.3336 24.328C84.099 24.328 83.883 24.3813 83.6856 24.488C83.4883 24.5947 83.3283 24.76 83.2056 24.984C83.0883 25.2027 83.0296 25.472 83.0296 25.792C83.0296 26.1173 83.0883 26.3893 83.2056 26.608C83.3283 26.8267 83.4883 26.9893 83.6856 27.096C83.883 27.2027 84.099 27.256 84.3336 27.256C84.5683 27.256 84.7843 27.2027 84.9816 27.096C85.179 26.9893 85.3363 26.8267 85.4536 26.608C85.5763 26.3893 85.6376 26.1173 85.6376 25.792C85.6376 25.472 85.5763 25.2027 85.4536 24.984C85.3363 24.76 85.179 24.5947 84.9816 24.488C84.7843 24.3813 84.5683 24.328 84.3336 24.328ZM93.6264 23.592L92.4024 28H91.3944L90.3064 24.592L89.2024 28H88.2024L86.9784 23.592H87.8984L88.7384 27.16L89.8424 23.592H90.8024L91.9224 27.16L92.7624 23.592H93.6264ZM96.7113 23.52C97.2233 23.52 97.634 23.6853 97.9433 24.016C98.2526 24.3467 98.4073 24.8187 98.4073 25.432V28H97.4953V25.528C97.4953 25.1333 97.394 24.8293 97.1913 24.616C96.9886 24.3973 96.7113 24.288 96.3593 24.288C95.9966 24.288 95.706 24.4053 95.4873 24.64C95.2686 24.8693 95.1593 25.208 95.1593 25.656V28H94.2473V23.592H95.1593V24.56C95.2766 24.2293 95.474 23.9733 95.7513 23.792C96.0286 23.6107 96.3486 23.52 96.7113 23.52ZM100.386 22.08V28H99.4739V22.08H100.386ZM103.506 23.536C103.932 23.536 104.316 23.6267 104.658 23.808C104.999 23.9893 105.266 24.2507 105.457 24.592C105.65 24.9333 105.746 25.3333 105.746 25.792C105.746 26.256 105.65 26.6587 105.457 27C105.266 27.3413 104.999 27.6027 104.658 27.784C104.316 27.9653 103.932 28.056 103.506 28.056C103.079 28.056 102.695 27.9653 102.354 27.784C102.018 27.6027 101.751 27.3413 101.554 27C101.362 26.6533 101.266 26.2507 101.266 25.792C101.266 25.3333 101.362 24.9333 101.554 24.592C101.751 24.2507 102.018 23.9893 102.354 23.808C102.695 23.6267 103.079 23.536 103.506 23.536ZM103.506 24.328C103.271 24.328 103.055 24.3813 102.858 24.488C102.66 24.5947 102.5 24.76 102.378 24.984C102.26 25.2027 102.202 25.472 102.202 25.792C102.202 26.1173 102.26 26.3893 102.378 26.608C102.5 26.8267 102.66 26.9893 102.858 27.096C103.055 27.2027 103.271 27.256 103.506 27.256C103.74 27.256 103.956 27.2027 104.154 27.096C104.351 26.9893 104.508 26.8267 104.626 26.608C104.748 26.3893 104.81 26.1173 104.81 25.792C104.81 25.472 104.748 25.2027 104.626 24.984C104.508 24.76 104.351 24.5947 104.154 24.488C103.956 24.3813 103.74 24.328 103.506 24.328ZM108.39 23.536C108.79 23.536 109.132 23.6347 109.414 23.832C109.697 24.0293 109.897 24.2907 110.014 24.616V23.592H110.926V28H110.014V26.976C109.897 27.3013 109.697 27.5627 109.414 27.76C109.132 27.9573 108.79 28.056 108.39 28.056C108.006 28.056 107.662 27.9653 107.358 27.784C107.06 27.6027 106.825 27.3413 106.654 27C106.484 26.6587 106.398 26.256 106.398 25.792C106.398 25.3333 106.484 24.9333 106.654 24.592C106.825 24.2507 107.06 23.9893 107.358 23.808C107.662 23.6267 108.006 23.536 108.39 23.536ZM108.67 24.336C108.265 24.336 107.94 24.4667 107.694 24.728C107.454 24.984 107.334 25.3387 107.334 25.792C107.334 26.2453 107.454 26.6027 107.694 26.864C107.94 27.12 108.265 27.248 108.67 27.248C108.926 27.248 109.156 27.1893 109.358 27.072C109.561 26.9493 109.721 26.7787 109.838 26.56C109.956 26.3413 110.014 26.0853 110.014 25.792C110.014 25.504 109.956 25.2507 109.838 25.032C109.721 24.808 109.561 24.6373 109.358 24.52C109.156 24.3973 108.926 24.336 108.67 24.336ZM113.789 23.536C114.189 23.536 114.53 23.6347 114.813 23.832C115.095 24.0293 115.293 24.2907 115.405 24.616V22.08H116.325V28H115.405V26.976C115.293 27.3013 115.095 27.5627 114.813 27.76C114.53 27.9573 114.189 28.056 113.789 28.056C113.405 28.056 113.061 27.9653 112.757 27.784C112.458 27.6027 112.223 27.3413 112.053 27C111.882 26.6587 111.797 26.256 111.797 25.792C111.797 25.3333 111.882 24.9333 112.053 24.592C112.223 24.2507 112.458 23.9893 112.757 23.808C113.061 23.6267 113.405 23.536 113.789 23.536ZM114.069 24.336C113.663 24.336 113.338 24.4667 113.093 24.728C112.853 24.984 112.733 25.3387 112.733 25.792C112.733 26.2453 112.853 26.6027 113.093 26.864C113.338 27.12 113.663 27.248 114.069 27.248C114.325 27.248 114.554 27.1893 114.757 27.072C114.959 26.9493 115.119 26.7787 115.237 26.56C115.354 26.3413 115.413 26.0853 115.413 25.792C115.413 25.504 115.354 25.2507 115.237 25.032C115.119 24.808 114.959 24.6373 114.757 24.52C114.554 24.3973 114.325 24.336 114.069 24.336ZM121.31 23.536C121.737 23.536 122.121 23.6267 122.462 23.808C122.804 23.9893 123.07 24.2507 123.262 24.592C123.454 24.9333 123.55 25.3333 123.55 25.792C123.55 26.256 123.454 26.6587 123.262 27C123.07 27.3413 122.804 27.6027 122.462 27.784C122.121 27.9653 121.737 28.056 121.31 28.056C120.884 28.056 120.5 27.9653 120.158 27.784C119.822 27.6027 119.556 27.3413 119.358 27C119.166 26.6533 119.07 26.2507 119.07 25.792C119.07 25.3333 119.166 24.9333 119.358 24.592C119.556 24.2507 119.822 23.9893 120.158 23.808C120.5 23.6267 120.884 23.536 121.31 23.536ZM121.31 24.328C121.076 24.328 120.86 24.3813 120.662 24.488C120.465 24.5947 120.305 24.76 120.182 24.984C120.065 25.2027 120.006 25.472 120.006 25.792C120.006 26.1173 120.065 26.3893 120.182 26.608C120.305 26.8267 120.465 26.9893 120.662 27.096C120.86 27.2027 121.076 27.256 121.31 27.256C121.545 27.256 121.761 27.2027 121.958 27.096C122.156 26.9893 122.313 26.8267 122.43 26.608C122.553 26.3893 122.614 26.1173 122.614 25.792C122.614 25.472 122.553 25.2027 122.43 24.984C122.313 24.76 122.156 24.5947 121.958 24.488C121.761 24.3813 121.545 24.328 121.31 24.328ZM126.891 23.52C127.403 23.52 127.814 23.6853 128.123 24.016C128.432 24.3467 128.587 24.8187 128.587 25.432V28H127.675V25.528C127.675 25.1333 127.574 24.8293 127.371 24.616C127.168 24.3973 126.891 24.288 126.539 24.288C126.176 24.288 125.886 24.4053 125.667 24.64C125.448 24.8693 125.339 25.208 125.339 25.656V28H124.427V23.592H125.339V24.56C125.456 24.2293 125.654 23.9733 125.931 23.792C126.208 23.6107 126.528 23.52 126.891 23.52ZM133.745 27.208V28H133.185C132.715 28 132.358 27.888 132.113 27.664C131.873 27.4347 131.753 27.056 131.753 26.528V24.368H131.121V23.592H131.753V22.496H132.673V23.592H133.737V24.368H132.673V26.544C132.673 26.7947 132.718 26.968 132.809 27.064C132.905 27.16 133.07 27.208 133.305 27.208H133.745ZM137.063 23.52C137.575 23.52 137.986 23.6853 138.295 24.016C138.604 24.3467 138.759 24.8187 138.759 25.432V28H137.847V25.528C137.847 25.1333 137.746 24.8293 137.543 24.616C137.34 24.3973 137.063 24.288 136.711 24.288C136.348 24.288 136.058 24.4053 135.839 24.64C135.62 24.8693 135.511 25.208 135.511 25.656V28H134.599V22.08H135.511V24.56C135.628 24.2293 135.826 23.9733 136.103 23.792C136.38 23.6107 136.7 23.52 137.063 23.52ZM143.921 25.584C143.921 25.7333 143.911 25.864 143.889 25.976H140.497C140.513 26.4293 140.639 26.7653 140.873 26.984C141.108 27.2027 141.399 27.312 141.745 27.312C142.049 27.312 142.305 27.2347 142.513 27.08C142.727 26.9253 142.857 26.72 142.905 26.464H143.881C143.823 26.7733 143.7 27.048 143.513 27.288C143.327 27.528 143.084 27.7173 142.785 27.856C142.487 27.9893 142.153 28.056 141.785 28.056C141.359 28.056 140.98 27.9653 140.649 27.784C140.324 27.6027 140.068 27.3413 139.881 27C139.695 26.6587 139.601 26.256 139.601 25.792C139.601 25.3333 139.695 24.9333 139.881 24.592C140.068 24.2507 140.324 23.9893 140.649 23.808C140.98 23.6267 141.359 23.536 141.785 23.536C142.217 23.536 142.593 23.6267 142.913 23.808C143.239 23.984 143.487 24.2293 143.657 24.544C143.833 24.8533 143.921 25.2 143.921 25.584ZM143.001 25.56C143.012 25.272 142.961 25.032 142.849 24.84C142.743 24.6427 142.593 24.4987 142.401 24.408C142.215 24.312 142.009 24.264 141.785 24.264C141.428 24.264 141.129 24.3733 140.889 24.592C140.649 24.8107 140.519 25.1333 140.497 25.56H143.001Z" fill="white"/>
<path d="M82.256 36.592C83.632 36.592 84.7733 36.9333 85.68 37.616C86.5867 38.288 87.168 39.2 87.424 40.352H85.056C84.832 39.84 84.4747 39.4347 83.984 39.136C83.504 38.8267 82.9333 38.672 82.272 38.672C81.6213 38.672 81.0453 38.8213 80.544 39.12C80.0427 39.4187 79.6533 39.8453 79.376 40.4C79.0987 40.9547 78.96 41.6053 78.96 42.352C78.96 43.536 79.2747 44.4587 79.904 45.12C80.544 45.7813 81.4133 46.112 82.512 46.112C83.3227 46.112 84.016 45.872 84.592 45.392C85.1787 44.912 85.5573 44.2453 85.728 43.392H81.904V41.776H87.616V43.952C87.456 44.6987 87.1413 45.3867 86.672 46.016C86.2133 46.6453 85.6053 47.152 84.848 47.536C84.1013 47.9093 83.2427 48.096 82.272 48.096C81.1627 48.096 80.1813 47.856 79.328 47.376C78.4853 46.8853 77.8293 46.208 77.36 45.344C76.9013 44.4693 76.672 43.472 76.672 42.352C76.672 41.232 76.9013 40.24 77.36 39.376C77.8293 38.5013 78.4853 37.8187 79.328 37.328C80.1707 36.8373 81.1467 36.592 82.256 36.592ZM93.4013 39.024C94.2653 39.024 95.0386 39.2053 95.7213 39.568C96.4146 39.9307 96.9586 40.4587 97.3533 41.152C97.7479 41.8347 97.9453 42.64 97.9453 43.568C97.9453 44.496 97.7479 45.3013 97.3533 45.984C96.9586 46.6667 96.4146 47.1947 95.7213 47.568C95.0386 47.9307 94.2653 48.112 93.4013 48.112C92.5373 48.112 91.7586 47.9307 91.0653 47.568C90.3826 47.1947 89.8439 46.6667 89.4493 45.984C89.0546 45.3013 88.8573 44.496 88.8573 43.568C88.8573 42.64 89.0546 41.8347 89.4493 41.152C89.8439 40.4587 90.3826 39.9307 91.0653 39.568C91.7586 39.2053 92.5373 39.024 93.4013 39.024ZM93.4013 40.976C92.7719 40.976 92.2386 41.2 91.8013 41.648C91.3639 42.0853 91.1453 42.7253 91.1453 43.568C91.1453 44.4107 91.3639 45.056 91.8013 45.504C92.2386 45.9413 92.7719 46.16 93.4013 46.16C94.0306 46.16 94.5639 45.9413 95.0013 45.504C95.4386 45.056 95.6573 44.4107 95.6573 43.568C95.6573 42.7253 95.4386 42.0853 95.0013 41.648C94.5639 41.2 94.0306 40.976 93.4013 40.976ZM103.636 39.024C104.5 39.024 105.273 39.2053 105.956 39.568C106.649 39.9307 107.193 40.4587 107.588 41.152C107.982 41.8347 108.18 42.64 108.18 43.568C108.18 44.496 107.982 45.3013 107.588 45.984C107.193 46.6667 106.649 47.1947 105.956 47.568C105.273 47.9307 104.5 48.112 103.636 48.112C102.772 48.112 101.993 47.9307 101.3 47.568C100.617 47.1947 100.078 46.6667 99.6836 45.984C99.289 45.3013 99.0916 44.496 99.0916 43.568C99.0916 42.64 99.289 41.8347 99.6836 41.152C100.078 40.4587 100.617 39.9307 101.3 39.568C101.993 39.2053 102.772 39.024 103.636 39.024ZM103.636 40.976C103.006 40.976 102.473 41.2 102.036 41.648C101.598 42.0853 101.38 42.7253 101.38 43.568C101.38 44.4107 101.598 45.056 102.036 45.504C102.473 45.9413 103.006 46.16 103.636 46.16C104.265 46.16 104.798 45.9413 105.236 45.504C105.673 45.056 105.892 44.4107 105.892 43.568C105.892 42.7253 105.673 42.0853 105.236 41.648C104.798 41.2 104.265 40.976 103.636 40.976ZM113.246 39.024C113.993 39.024 114.633 39.2 115.166 39.552C115.699 39.904 116.078 40.3787 116.302 40.976V39.136H118.542V48.032C118.542 48.8533 118.377 49.5893 118.046 50.24C117.726 50.9013 117.241 51.4187 116.59 51.792C115.95 52.1653 115.171 52.352 114.254 52.352C112.974 52.352 111.939 52.048 111.15 51.44C110.361 50.832 109.881 50.0053 109.71 48.96H111.934C112.062 49.408 112.307 49.7547 112.67 50C113.043 50.256 113.518 50.384 114.094 50.384C114.755 50.384 115.289 50.1867 115.694 49.792C116.099 49.408 116.302 48.8213 116.302 48.032V46.144C116.078 46.7413 115.699 47.2213 115.166 47.584C114.633 47.936 113.993 48.112 113.246 48.112C112.499 48.112 111.827 47.9307 111.23 47.568C110.633 47.2053 110.163 46.6827 109.822 46C109.491 45.3067 109.326 44.496 109.326 43.568C109.326 42.64 109.491 41.8347 109.822 41.152C110.163 40.4587 110.633 39.9307 111.23 39.568C111.827 39.2053 112.499 39.024 113.246 39.024ZM113.95 40.992C113.246 40.992 112.681 41.2213 112.254 41.68C111.827 42.1387 111.614 42.768 111.614 43.568C111.614 44.368 111.827 44.9973 112.254 45.456C112.681 45.904 113.246 46.128 113.95 46.128C114.633 46.128 115.193 45.8987 115.63 45.44C116.078 44.9707 116.302 44.3467 116.302 43.568C116.302 42.7787 116.078 42.1547 115.63 41.696C115.193 41.2267 114.633 40.992 113.95 40.992ZM122.843 36.16V48H120.587V36.16H122.843ZM133.219 43.232C133.219 43.456 133.193 43.712 133.139 44H126.643C126.675 44.7893 126.889 45.3707 127.283 45.744C127.678 46.1173 128.169 46.304 128.755 46.304C129.278 46.304 129.71 46.176 130.051 45.92C130.403 45.664 130.627 45.3173 130.723 44.88H133.107C132.99 45.4987 132.739 46.0533 132.355 46.544C131.971 47.0347 131.475 47.4187 130.867 47.696C130.27 47.9733 129.603 48.112 128.867 48.112C128.003 48.112 127.235 47.9307 126.563 47.568C125.891 47.1947 125.369 46.6667 124.995 45.984C124.622 45.3013 124.435 44.496 124.435 43.568C124.435 42.64 124.622 41.8347 124.995 41.152C125.369 40.4587 125.891 39.9307 126.563 39.568C127.235 39.2053 128.003 39.024 128.867 39.024C129.742 39.024 130.505 39.2053 131.155 39.568C131.817 39.9307 132.323 40.432 132.675 41.072C133.038 41.7013 133.219 42.4213 133.219 43.232ZM130.947 43.008C130.979 42.2827 130.787 41.7333 130.371 41.36C129.966 40.9867 129.465 40.8 128.867 40.8C128.259 40.8 127.747 40.9867 127.331 41.36C126.915 41.7333 126.686 42.2827 126.643 43.008H130.947ZM140.561 43.808V48H138.305V36.704H142.417C143.751 36.704 144.753 37.024 145.425 37.664C146.108 38.304 146.449 39.1733 146.449 40.272C146.449 41.3493 146.097 42.208 145.393 42.848C144.7 43.488 143.708 43.808 142.417 43.808H140.561ZM142.177 42C143.5 42 144.161 41.424 144.161 40.272C144.161 39.7067 144.007 39.2747 143.697 38.976C143.388 38.6773 142.881 38.528 142.177 38.528H140.561V42H142.177ZM150.171 36.16V48H147.915V36.16H150.171ZM155.684 39.024C156.43 39.024 157.07 39.2 157.604 39.552C158.137 39.904 158.516 40.3787 158.74 40.976V39.136H160.98V48H158.74V46.144C158.516 46.7413 158.137 47.2213 157.604 47.584C157.07 47.936 156.43 48.112 155.684 48.112C154.937 48.112 154.265 47.9307 153.668 47.568C153.07 47.2053 152.601 46.6827 152.26 46C151.929 45.3067 151.764 44.496 151.764 43.568C151.764 42.64 151.929 41.8347 152.26 41.152C152.601 40.4587 153.07 39.9307 153.668 39.568C154.265 39.2053 154.937 39.024 155.684 39.024ZM156.388 40.992C155.684 40.992 155.118 41.2213 154.692 41.68C154.265 42.1387 154.052 42.768 154.052 43.568C154.052 44.368 154.265 44.9973 154.692 45.456C155.118 45.904 155.684 46.128 156.388 46.128C157.07 46.128 157.63 45.8987 158.068 45.44C158.516 44.9707 158.74 44.3467 158.74 43.568C158.74 42.7787 158.516 42.1547 158.068 41.696C157.63 41.2267 157.07 40.992 156.388 40.992ZM164.544 39.136L166.96 45.152L169.2 39.136H171.68L166.256 52.224H163.76L165.76 47.744L162.032 39.136H164.544Z" fill="white"/>
<path d="M28 20.2264V49.7731C28 51.4842 29.8483 52.5532 31.3269 51.6993L56.8887 36.9259C58.3704 36.0688 58.3704 33.9276 56.8887 33.0705L31.3269 18.3003C29.8483 17.4463 28 18.5153 28 20.2264Z" fill="url(#paint0_linear_5140_1354)"/>
<path d="M50.3136 29.2745L31.3278 18.2997C30.4052 17.7683 29.3428 17.9834 28.6719 18.6318L44.8154 34.9992L50.3136 29.2745Z" fill="url(#paint1_linear_5140_1354)"/>
<path d="M28.6719 51.3674C29.3428 52.0189 30.4052 52.2308 31.3278 51.6995L50.3136 40.7246L44.8123 35L28.6719 51.3674Z" fill="url(#paint2_linear_5140_1354)"/>
<path d="M56.8867 33.0739L50.3138 29.2754L44.8125 35L50.3138 40.7278L56.8867 36.9293C58.3685 36.0722 58.3685 33.9278 56.8867 33.0739Z" fill="url(#paint3_linear_5140_1354)"/>
<defs>
<linearGradient id="paint0_linear_5140_1354" x1="58.1312" y1="17.9998" x2="27.4031" y2="51.2907" gradientUnits="userSpaceOnUse">
<stop stop-color="#00C4FF"/>
<stop offset="1" stop-color="#00E4FF"/>
</linearGradient>
<linearGradient id="paint1_linear_5140_1354" x1="28.6222" y1="17.9992" x2="50.6573" y2="34.6943" gradientUnits="userSpaceOnUse">
<stop stop-color="#12D770"/>
<stop offset="1" stop-color="#00F076"/>
</linearGradient>
<linearGradient id="paint2_linear_5140_1354" x1="50.3664" y1="35.0791" x2="28.3312" y2="51.7741" gradientUnits="userSpaceOnUse">
<stop stop-color="#FB3746"/>
<stop offset="1" stop-color="#E72950"/>
</linearGradient>
<linearGradient id="paint3_linear_5140_1354" x1="44.7752" y1="35.0791" x2="58.1324" y2="35.0791" gradientUnits="userSpaceOnUse">
<stop stop-color="#FFBE00"/>
<stop offset="1" stop-color="#FFD703"/>
</linearGradient>
</defs>
</svg>
