<?xml version="1.0" encoding="UTF-8"?>
<svg xmlns="http://www.w3.org/2000/svg" width="31" height="24" viewBox="0 0 31 24" fill="none">
  <g id="Group">
    <g id="Group_2">
      <path id="Vector" d="M22.1025 5.92336C22.7737 5.92336 23.3229 5.37149 23.3229 4.69699V1.22637C23.3229 0.551865 22.7737 0 22.1025 0H1.72094C1.04969 0 0.500488 0.551865 0.500488 1.22637V15.5626C0.500488 16.2371 1.04969 16.789 1.72094 16.789H22.1025C22.7737 16.789 23.3229 16.2371 23.3229 15.5626C23.3229 14.8881 22.7737 14.3362 22.1025 14.3362H2.94139V2.45273H20.882V4.69699C20.882 5.38376 21.4312 5.92336 22.1025 5.92336Z" fill="#0781FE"></path>
      <path id="Vector_2" d="M8.86142 6.62252L4.63867 10.878L5.93235 12.178L8.86142 9.22241L11.1681 11.5402L16.7577 5.92349L15.4641 4.62354L11.1681 8.94035L8.86142 6.62252Z" fill="#0781FE"></path>
    </g>
    <path id="Vector_3" d="M22.1037 14.3364C17.4782 14.3364 13.707 18.1259 13.707 22.7738C13.707 23.4483 14.2562 24.0002 14.9275 24.0002C15.5987 24.0002 16.1479 23.4483 16.1479 22.7738C16.1479 19.4749 18.8207 16.7892 22.1037 16.7892C25.3868 16.7892 28.0595 19.4749 28.0595 22.7738C28.0595 23.4483 28.6087 24.0002 29.28 24.0002C29.9512 24.0002 30.5004 23.4483 30.5004 22.7738V22.688C30.5004 22.6757 30.5004 22.6512 30.5004 22.6389C30.4272 18.0523 26.6926 14.3364 22.1037 14.3364Z" fill="#0781FE"></path>
    <path id="Vector_4" d="M27.5075 8.90351C27.5075 5.91118 25.0788 3.4707 22.1009 3.4707C19.123 3.4707 16.6943 5.91118 16.6943 8.90351C16.6943 11.8958 19.123 14.3363 22.1009 14.3363C25.0788 14.3363 27.5075 11.9081 27.5075 8.90351ZM22.1009 11.8836C20.4655 11.8836 19.1352 10.5468 19.1352 8.90351C19.1352 7.26018 20.4655 5.92344 22.1009 5.92344C23.7364 5.92344 25.0666 7.26018 25.0666 8.90351C25.0666 10.5468 23.7364 11.8836 22.1009 11.8836Z" fill="#0781FE"></path>
  </g>
</svg>
