<svg width="200" height="70" viewBox="0 0 200 70" fill="none" xmlns="http://www.w3.org/2000/svg">
<rect x="1.5" y="1.5" width="197" height="67" rx="8.5" fill="#262729" stroke="#535456" stroke-width="3"/>
<path d="M89.4 25.168C89.4 25.7387 89.2827 26.2373 89.048 26.664C88.8187 27.0853 88.48 27.4133 88.032 27.648C87.5893 27.8827 87.0587 28 86.44 28H84.552V22.352H86.44C87.0587 22.352 87.5893 22.4693 88.032 22.704C88.48 22.9333 88.8187 23.2587 89.048 23.68C89.2827 24.1013 89.4 24.5973 89.4 25.168ZM86.368 27.176C87.0453 27.176 87.5653 27 87.928 26.648C88.2907 26.296 88.472 25.8027 88.472 25.168C88.472 24.5333 88.2907 24.04 87.928 23.688C87.5653 23.336 87.0453 23.16 86.368 23.16H85.464V27.176H86.368ZM92.3336 23.536C92.7603 23.536 93.1443 23.6267 93.4856 23.808C93.827 23.9893 94.0936 24.2507 94.2856 24.592C94.4776 24.9333 94.5736 25.3333 94.5736 25.792C94.5736 26.256 94.4776 26.6587 94.2856 27C94.0936 27.3413 93.827 27.6027 93.4856 27.784C93.1443 27.9653 92.7603 28.056 92.3336 28.056C91.907 28.056 91.523 27.9653 91.1816 27.784C90.8456 27.6027 90.579 27.3413 90.3816 27C90.1896 26.6533 90.0936 26.2507 90.0936 25.792C90.0936 25.3333 90.1896 24.9333 90.3816 24.592C90.579 24.2507 90.8456 23.9893 91.1816 23.808C91.523 23.6267 91.907 23.536 92.3336 23.536ZM92.3336 24.328C92.099 24.328 91.883 24.3813 91.6856 24.488C91.4883 24.5947 91.3283 24.76 91.2056 24.984C91.0883 25.2027 91.0296 25.472 91.0296 25.792C91.0296 26.1173 91.0883 26.3893 91.2056 26.608C91.3283 26.8267 91.4883 26.9893 91.6856 27.096C91.883 27.2027 92.099 27.256 92.3336 27.256C92.5683 27.256 92.7843 27.2027 92.9816 27.096C93.179 26.9893 93.3363 26.8267 93.4536 26.608C93.5763 26.3893 93.6376 26.1173 93.6376 25.792C93.6376 25.472 93.5763 25.2027 93.4536 24.984C93.3363 24.76 93.179 24.5947 92.9816 24.488C92.7843 24.3813 92.5683 24.328 92.3336 24.328ZM101.626 23.592L100.402 28H99.3944L98.3064 24.592L97.2024 28H96.2024L94.9784 23.592H95.8984L96.7384 27.16L97.8424 23.592H98.8024L99.9224 27.16L100.762 23.592H101.626ZM104.711 23.52C105.223 23.52 105.634 23.6853 105.943 24.016C106.253 24.3467 106.407 24.8187 106.407 25.432V28H105.495V25.528C105.495 25.1333 105.394 24.8293 105.191 24.616C104.989 24.3973 104.711 24.288 104.359 24.288C103.997 24.288 103.706 24.4053 103.487 24.64C103.269 24.8693 103.159 25.208 103.159 25.656V28H102.247V23.592H103.159V24.56C103.277 24.2293 103.474 23.9733 103.751 23.792C104.029 23.6107 104.349 23.52 104.711 23.52ZM108.386 22.08V28H107.474V22.08H108.386ZM111.506 23.536C111.932 23.536 112.316 23.6267 112.658 23.808C112.999 23.9893 113.266 24.2507 113.457 24.592C113.65 24.9333 113.746 25.3333 113.746 25.792C113.746 26.256 113.65 26.6587 113.457 27C113.266 27.3413 112.999 27.6027 112.658 27.784C112.316 27.9653 111.932 28.056 111.506 28.056C111.079 28.056 110.695 27.9653 110.354 27.784C110.018 27.6027 109.751 27.3413 109.554 27C109.362 26.6533 109.266 26.2507 109.266 25.792C109.266 25.3333 109.362 24.9333 109.554 24.592C109.751 24.2507 110.018 23.9893 110.354 23.808C110.695 23.6267 111.079 23.536 111.506 23.536ZM111.506 24.328C111.271 24.328 111.055 24.3813 110.858 24.488C110.66 24.5947 110.5 24.76 110.378 24.984C110.26 25.2027 110.202 25.472 110.202 25.792C110.202 26.1173 110.26 26.3893 110.378 26.608C110.5 26.8267 110.66 26.9893 110.858 27.096C111.055 27.2027 111.271 27.256 111.506 27.256C111.74 27.256 111.956 27.2027 112.154 27.096C112.351 26.9893 112.508 26.8267 112.626 26.608C112.748 26.3893 112.81 26.1173 112.81 25.792C112.81 25.472 112.748 25.2027 112.626 24.984C112.508 24.76 112.351 24.5947 112.154 24.488C111.956 24.3813 111.74 24.328 111.506 24.328ZM116.39 23.536C116.79 23.536 117.132 23.6347 117.414 23.832C117.697 24.0293 117.897 24.2907 118.014 24.616V23.592H118.926V28H118.014V26.976C117.897 27.3013 117.697 27.5627 117.414 27.76C117.132 27.9573 116.79 28.056 116.39 28.056C116.006 28.056 115.662 27.9653 115.358 27.784C115.06 27.6027 114.825 27.3413 114.654 27C114.484 26.6587 114.398 26.256 114.398 25.792C114.398 25.3333 114.484 24.9333 114.654 24.592C114.825 24.2507 115.06 23.9893 115.358 23.808C115.662 23.6267 116.006 23.536 116.39 23.536ZM116.67 24.336C116.265 24.336 115.94 24.4667 115.694 24.728C115.454 24.984 115.334 25.3387 115.334 25.792C115.334 26.2453 115.454 26.6027 115.694 26.864C115.94 27.12 116.265 27.248 116.67 27.248C116.926 27.248 117.156 27.1893 117.358 27.072C117.561 26.9493 117.721 26.7787 117.838 26.56C117.956 26.3413 118.014 26.0853 118.014 25.792C118.014 25.504 117.956 25.2507 117.838 25.032C117.721 24.808 117.561 24.6373 117.358 24.52C117.156 24.3973 116.926 24.336 116.67 24.336ZM121.789 23.536C122.189 23.536 122.53 23.6347 122.813 23.832C123.095 24.0293 123.293 24.2907 123.405 24.616V22.08H124.325V28H123.405V26.976C123.293 27.3013 123.095 27.5627 122.813 27.76C122.53 27.9573 122.189 28.056 121.789 28.056C121.405 28.056 121.061 27.9653 120.757 27.784C120.458 27.6027 120.223 27.3413 120.053 27C119.882 26.6587 119.797 26.256 119.797 25.792C119.797 25.3333 119.882 24.9333 120.053 24.592C120.223 24.2507 120.458 23.9893 120.757 23.808C121.061 23.6267 121.405 23.536 121.789 23.536ZM122.069 24.336C121.663 24.336 121.338 24.4667 121.093 24.728C120.853 24.984 120.733 25.3387 120.733 25.792C120.733 26.2453 120.853 26.6027 121.093 26.864C121.338 27.12 121.663 27.248 122.069 27.248C122.325 27.248 122.554 27.1893 122.757 27.072C122.959 26.9493 123.119 26.7787 123.237 26.56C123.354 26.3413 123.413 26.0853 123.413 25.792C123.413 25.504 123.354 25.2507 123.237 25.032C123.119 24.808 122.959 24.6373 122.757 24.52C122.554 24.3973 122.325 24.336 122.069 24.336ZM129.31 23.536C129.737 23.536 130.121 23.6267 130.462 23.808C130.804 23.9893 131.07 24.2507 131.262 24.592C131.454 24.9333 131.55 25.3333 131.55 25.792C131.55 26.256 131.454 26.6587 131.262 27C131.07 27.3413 130.804 27.6027 130.462 27.784C130.121 27.9653 129.737 28.056 129.31 28.056C128.884 28.056 128.5 27.9653 128.158 27.784C127.822 27.6027 127.556 27.3413 127.358 27C127.166 26.6533 127.07 26.2507 127.07 25.792C127.07 25.3333 127.166 24.9333 127.358 24.592C127.556 24.2507 127.822 23.9893 128.158 23.808C128.5 23.6267 128.884 23.536 129.31 23.536ZM129.31 24.328C129.076 24.328 128.86 24.3813 128.662 24.488C128.465 24.5947 128.305 24.76 128.182 24.984C128.065 25.2027 128.006 25.472 128.006 25.792C128.006 26.1173 128.065 26.3893 128.182 26.608C128.305 26.8267 128.465 26.9893 128.662 27.096C128.86 27.2027 129.076 27.256 129.31 27.256C129.545 27.256 129.761 27.2027 129.958 27.096C130.156 26.9893 130.313 26.8267 130.43 26.608C130.553 26.3893 130.614 26.1173 130.614 25.792C130.614 25.472 130.553 25.2027 130.43 24.984C130.313 24.76 130.156 24.5947 129.958 24.488C129.761 24.3813 129.545 24.328 129.31 24.328ZM134.891 23.52C135.403 23.52 135.814 23.6853 136.123 24.016C136.432 24.3467 136.587 24.8187 136.587 25.432V28H135.675V25.528C135.675 25.1333 135.574 24.8293 135.371 24.616C135.168 24.3973 134.891 24.288 134.539 24.288C134.176 24.288 133.886 24.4053 133.667 24.64C133.448 24.8693 133.339 25.208 133.339 25.656V28H132.427V23.592H133.339V24.56C133.456 24.2293 133.654 23.9733 133.931 23.792C134.208 23.6107 134.528 23.52 134.891 23.52ZM141.745 27.208V28H141.185C140.715 28 140.358 27.888 140.113 27.664C139.873 27.4347 139.753 27.056 139.753 26.528V24.368H139.121V23.592H139.753V22.496H140.673V23.592H141.737V24.368H140.673V26.544C140.673 26.7947 140.718 26.968 140.809 27.064C140.905 27.16 141.07 27.208 141.305 27.208H141.745ZM145.063 23.52C145.575 23.52 145.986 23.6853 146.295 24.016C146.604 24.3467 146.759 24.8187 146.759 25.432V28H145.847V25.528C145.847 25.1333 145.746 24.8293 145.543 24.616C145.34 24.3973 145.063 24.288 144.711 24.288C144.348 24.288 144.058 24.4053 143.839 24.64C143.62 24.8693 143.511 25.208 143.511 25.656V28H142.599V22.08H143.511V24.56C143.628 24.2293 143.826 23.9733 144.103 23.792C144.38 23.6107 144.7 23.52 145.063 23.52ZM151.921 25.584C151.921 25.7333 151.911 25.864 151.889 25.976H148.497C148.513 26.4293 148.639 26.7653 148.873 26.984C149.108 27.2027 149.399 27.312 149.745 27.312C150.049 27.312 150.305 27.2347 150.513 27.08C150.727 26.9253 150.857 26.72 150.905 26.464H151.881C151.823 26.7733 151.7 27.048 151.513 27.288C151.327 27.528 151.084 27.7173 150.785 27.856C150.487 27.9893 150.153 28.056 149.785 28.056C149.359 28.056 148.98 27.9653 148.649 27.784C148.324 27.6027 148.068 27.3413 147.881 27C147.695 26.6587 147.601 26.256 147.601 25.792C147.601 25.3333 147.695 24.9333 147.881 24.592C148.068 24.2507 148.324 23.9893 148.649 23.808C148.98 23.6267 149.359 23.536 149.785 23.536C150.217 23.536 150.593 23.6267 150.913 23.808C151.239 23.984 151.487 24.2293 151.657 24.544C151.833 24.8533 151.921 25.2 151.921 25.584ZM151.001 25.56C151.012 25.272 150.961 25.032 150.849 24.84C150.743 24.6427 150.593 24.4987 150.401 24.408C150.215 24.312 150.009 24.264 149.785 24.264C149.428 24.264 149.129 24.3733 148.889 24.592C148.649 24.8107 148.519 25.1333 148.497 25.56H151.001Z" fill="white"/>
<path d="M91.904 45.728H87.376L86.576 48H84.192L88.352 36.832H90.928L95.072 48H92.688L91.904 45.728ZM91.296 44.016L89.632 39.248L87.968 44.016H91.296ZM101.586 39.024C102.332 39.024 103.004 39.2053 103.602 39.568C104.199 39.9307 104.663 40.4587 104.994 41.152C105.335 41.8347 105.506 42.64 105.506 43.568C105.506 44.496 105.335 45.3067 104.994 46C104.663 46.6827 104.199 47.2053 103.602 47.568C103.004 47.9307 102.332 48.112 101.586 48.112C100.839 48.112 100.199 47.936 99.6656 47.584C99.143 47.2213 98.7696 46.7413 98.5456 46.144V52.224H96.2896V39.136H98.5456V40.976C98.7696 40.3787 99.143 39.904 99.6656 39.552C100.199 39.2 100.839 39.024 101.586 39.024ZM100.882 40.992C100.199 40.992 99.6336 41.2267 99.1856 41.696C98.7483 42.1547 98.5296 42.7787 98.5296 43.568C98.5296 44.3467 98.7483 44.9707 99.1856 45.44C99.6336 45.8987 100.199 46.128 100.882 46.128C101.586 46.128 102.151 45.904 102.578 45.456C103.004 44.9973 103.218 44.368 103.218 43.568C103.218 42.768 103.004 42.1387 102.578 41.68C102.151 41.2213 101.586 40.992 100.882 40.992ZM112.398 39.024C113.145 39.024 113.817 39.2053 114.414 39.568C115.011 39.9307 115.475 40.4587 115.806 41.152C116.147 41.8347 116.318 42.64 116.318 43.568C116.318 44.496 116.147 45.3067 115.806 46C115.475 46.6827 115.011 47.2053 114.414 47.568C113.817 47.9307 113.145 48.112 112.398 48.112C111.651 48.112 111.011 47.936 110.478 47.584C109.955 47.2213 109.582 46.7413 109.358 46.144V52.224H107.102V39.136H109.358V40.976C109.582 40.3787 109.955 39.904 110.478 39.552C111.011 39.2 111.651 39.024 112.398 39.024ZM111.694 40.992C111.011 40.992 110.446 41.2267 109.998 41.696C109.561 42.1547 109.342 42.7787 109.342 43.568C109.342 44.3467 109.561 44.9707 109.998 45.44C110.446 45.8987 111.011 46.128 111.694 46.128C112.398 46.128 112.963 45.904 113.39 45.456C113.817 44.9973 114.03 44.368 114.03 43.568C114.03 42.768 113.817 42.1387 113.39 41.68C112.963 41.2213 112.398 40.992 111.694 40.992ZM129.159 44.912C129.159 45.488 129.015 46.0213 128.727 46.512C128.439 46.992 128.012 47.3813 127.447 47.68C126.882 47.968 126.194 48.112 125.383 48.112C124.583 48.112 123.868 47.9787 123.239 47.712C122.61 47.4347 122.103 47.04 121.719 46.528C121.346 46.016 121.132 45.4187 121.079 44.736H123.479C123.532 45.1947 123.714 45.5787 124.023 45.888C124.343 46.1867 124.764 46.336 125.287 46.336C125.756 46.336 126.114 46.2133 126.359 45.968C126.615 45.712 126.743 45.3867 126.743 44.992C126.743 44.64 126.642 44.352 126.439 44.128C126.236 43.8933 125.98 43.7067 125.671 43.568C125.362 43.4293 124.935 43.2693 124.391 43.088C123.687 42.8533 123.111 42.624 122.663 42.4C122.215 42.1653 121.831 41.8293 121.511 41.392C121.202 40.9547 121.047 40.384 121.047 39.68C121.047 38.7093 121.394 37.9467 122.087 37.392C122.791 36.8267 123.719 36.544 124.871 36.544C126.066 36.544 127.015 36.832 127.719 37.408C128.434 37.984 128.839 38.752 128.935 39.712H126.503C126.439 39.3067 126.268 38.976 125.991 38.72C125.714 38.4533 125.335 38.32 124.855 38.32C124.439 38.32 124.103 38.432 123.847 38.656C123.591 38.8693 123.463 39.184 123.463 39.6C123.463 39.9307 123.559 40.208 123.751 40.432C123.954 40.6453 124.204 40.8213 124.503 40.96C124.812 41.0987 125.228 41.2533 125.751 41.424C126.476 41.68 127.063 41.92 127.511 42.144C127.97 42.368 128.359 42.704 128.679 43.152C128.999 43.6 129.159 44.1867 129.159 44.912ZM135.557 46.064V48H134.373C133.381 48 132.618 47.76 132.085 47.28C131.562 46.8 131.301 46 131.301 44.88V41.04H130.069V39.136H131.301V36.944H133.557V39.136H135.541V41.04H133.557V44.912C133.557 45.3387 133.642 45.6373 133.813 45.808C133.984 45.9787 134.272 46.064 134.677 46.064H135.557ZM141.276 39.024C142.14 39.024 142.914 39.2053 143.596 39.568C144.29 39.9307 144.834 40.4587 145.228 41.152C145.623 41.8347 145.82 42.64 145.82 43.568C145.82 44.496 145.623 45.3013 145.228 45.984C144.834 46.6667 144.29 47.1947 143.596 47.568C142.914 47.9307 142.14 48.112 141.276 48.112C140.412 48.112 139.634 47.9307 138.94 47.568C138.258 47.1947 137.719 46.6667 137.324 45.984C136.93 45.3013 136.732 44.496 136.732 43.568C136.732 42.64 136.93 41.8347 137.324 41.152C137.719 40.4587 138.258 39.9307 138.94 39.568C139.634 39.2053 140.412 39.024 141.276 39.024ZM141.276 40.976C140.647 40.976 140.114 41.2 139.676 41.648C139.239 42.0853 139.02 42.7253 139.02 43.568C139.02 44.4107 139.239 45.056 139.676 45.504C140.114 45.9413 140.647 46.16 141.276 46.16C141.906 46.16 142.439 45.9413 142.876 45.504C143.314 45.056 143.532 44.4107 143.532 43.568C143.532 42.7253 143.314 42.0853 142.876 41.648C142.439 41.2 141.906 40.976 141.276 40.976ZM149.671 40.832C150.001 40.2667 150.439 39.824 150.983 39.504C151.527 39.1733 152.135 39.008 152.807 39.008V41.424H152.151C150.497 41.424 149.671 42.192 149.671 43.728V48H147.415V39.136H149.671V40.832ZM162.391 43.232C162.391 43.456 162.365 43.712 162.311 44H155.815C155.847 44.7893 156.061 45.3707 156.455 45.744C156.85 46.1173 157.341 46.304 157.927 46.304C158.45 46.304 158.882 46.176 159.223 45.92C159.575 45.664 159.799 45.3173 159.895 44.88H162.279C162.162 45.4987 161.911 46.0533 161.527 46.544C161.143 47.0347 160.647 47.4187 160.039 47.696C159.442 47.9733 158.775 48.112 158.039 48.112C157.175 48.112 156.407 47.9307 155.735 47.568C155.063 47.1947 154.541 46.6667 154.167 45.984C153.794 45.3013 153.607 44.496 153.607 43.568C153.607 42.64 153.794 41.8347 154.167 41.152C154.541 40.4587 155.063 39.9307 155.735 39.568C156.407 39.2053 157.175 39.024 158.039 39.024C158.914 39.024 159.677 39.2053 160.327 39.568C160.989 39.9307 161.495 40.432 161.847 41.072C162.21 41.7013 162.391 42.4213 162.391 43.232ZM160.119 43.008C160.151 42.2827 159.959 41.7333 159.543 41.36C159.138 40.9867 158.637 40.8 158.039 40.8C157.431 40.8 156.919 40.9867 156.503 41.36C156.087 41.7333 155.858 42.2827 155.815 43.008H160.119Z" fill="white"/>
<path fill-rule="evenodd" clip-rule="evenodd" d="M51.959 25.7919C51.8009 23.4762 52.9457 18.6759 58.7901 18C58.9799 20.5347 57.8793 25.6417 51.959 25.7919ZM52.2429 27.8578C50.377 26.8251 45.8482 25.2667 42.6604 27.2945C38.6755 29.8292 37.6319 33.3966 38.1063 38.3721C38.5807 43.3477 41.7116 48.0416 42.3757 48.8865C43.0399 49.7314 45.0323 52.0783 46.9298 51.9844C47.8218 51.9403 48.7768 51.6057 49.7256 51.2733C50.7951 50.8986 51.8569 50.5265 52.8122 50.5763C53.6422 50.6195 54.5728 50.9613 55.4929 51.2992C56.5709 51.6951 57.6345 52.0857 58.5047 51.9844C61.351 51.6531 64.482 47.8538 66 42.9721C64.0076 41.9395 61.351 39.7803 61.351 36.2129C61.351 32.27 63.9127 30.2986 65.0512 29.5476C64.3871 28.421 62.3188 26.168 59.3586 26.168C56.6346 26.168 54.8361 26.8803 53.5089 27.406C53.0334 27.5943 52.6183 27.7587 52.2429 27.8578Z" fill="white"/>
</svg>
