<svg width="120" height="22" viewBox="0 0 120 22" fill="none" xmlns="http://www.w3.org/2000/svg">
<path d="M12.6515 10.4341H11.5952V9.01769H13.9489V7.89355H11.5952V6.52209H10.4471V7.88231H9.40229C8.36896 7.88231 7.53082 8.70293 7.53082 9.71466C7.53082 10.7264 8.36896 11.547 9.40229 11.547H10.4471V12.9634H8.09341V14.0876H10.4471V15.4478H11.5952V14.0876H12.6515C13.6849 14.0876 14.523 13.2669 14.523 12.2552C14.523 11.2547 13.6849 10.4341 12.6515 10.4341ZM9.40229 10.4341C9.00044 10.4341 8.66748 10.1193 8.66748 9.7259C8.66748 9.33245 8.98896 9.01769 9.39081 9.01769H10.4471V10.4341H9.40229ZM12.6515 12.9859H11.5952V11.5695H12.6515C13.0534 11.5695 13.3749 11.8843 13.3749 12.2777C13.3749 12.6712 13.0534 12.9859 12.6515 12.9859Z" fill="#00C7B4"/>
<path d="M20.1469 4.59847C18.0344 1.72067 14.6473 0.000732422 11.0192 0.000732422C6.07074 0.000732422 1.76521 3.10337 0.284112 7.74607C0.261149 7.836 0.226705 7.94842 0.192261 8.06083H2.61484C3.88927 4.57599 7.2074 2.24902 11.0192 2.24902C13.9585 2.24902 16.714 3.66544 18.3788 6.03738C18.3903 6.05986 18.4247 6.0711 18.4362 6.09358C18.4592 6.11607 18.4592 6.14979 18.4821 6.17227L18.5051 6.19476L16.5992 8.06083H22.0414V2.7324L20.1469 4.59847Z" fill="white"/>
<path d="M11.0221 19.7525C8.0829 19.7525 5.32737 18.3361 3.66257 15.9641C3.65108 15.9416 3.61664 15.9304 3.60516 15.9079C3.5822 15.8854 3.5822 15.8517 3.55923 15.8292L3.53627 15.8068L5.44218 13.9407H0V19.2691L1.90591 17.403C4.01849 20.2808 7.4055 22.0008 11.0336 22.0008C15.9821 22.0008 20.2876 18.8981 21.7687 14.2554C21.8032 14.1655 21.8261 14.0531 21.8606 13.9407H19.438C18.1521 17.4255 14.834 19.7525 11.0221 19.7525Z" fill="white"/>
<path d="M118.164 15.1599L116.225 11.9333H115.496V15.1599H113.838V6.87622H117.001C117.965 6.87622 118.697 7.11089 119.199 7.58022C119.708 8.04955 119.963 8.66751 119.963 9.43408C119.963 10.0599 119.787 10.5839 119.434 11.0063C119.089 11.4287 118.588 11.7103 117.929 11.8511L119.998 15.1599H118.164ZM115.496 10.7951H116.86C117.808 10.7951 118.282 10.3767 118.282 9.53968C118.282 9.14075 118.164 8.83177 117.929 8.61275C117.702 8.38591 117.345 8.27249 116.86 8.27249H115.496V10.7951Z" fill="white"/>
<path d="M109.314 8.19035V10.3375H112.253V11.6047H109.314V13.8341H112.606V15.1599H107.657V6.87622H112.606V8.19035H109.314Z" fill="white"/>
<path d="M106.538 6.87622V8.19035H103.046V10.4079H105.844V11.6751H103.046V15.1599H101.389V6.87622H106.538Z" fill="white"/>
<path d="M100.17 12.8956C100.17 13.318 100.064 13.7091 99.8529 14.0689C99.6413 14.4209 99.3278 14.7064 98.9124 14.9254C98.4971 15.1366 97.9916 15.2422 97.396 15.2422C96.8082 15.2422 96.2831 15.1444 95.8208 14.9489C95.3584 14.7455 94.9861 14.4561 94.704 14.0806C94.4297 13.7052 94.273 13.2671 94.2338 12.7665H95.9971C96.0363 13.1028 96.1695 13.3844 96.3968 13.6113C96.6319 13.8303 96.9414 13.9398 97.3255 13.9398C97.6703 13.9398 97.9328 13.8499 98.1131 13.67C98.3012 13.4822 98.3952 13.2436 98.3952 12.9542C98.3952 12.6961 98.3207 12.4849 98.1718 12.3206C98.0229 12.1485 97.8349 12.0116 97.6076 11.91C97.3803 11.8083 97.0668 11.6909 96.6672 11.558C96.1499 11.3859 95.7267 11.2177 95.3976 11.0534C95.0684 10.8813 94.7863 10.6349 94.5512 10.3142C94.3239 9.99352 94.2103 9.57503 94.2103 9.05876C94.2103 8.34694 94.465 7.78765 94.9744 7.3809C95.4916 6.96632 96.1734 6.75903 97.0198 6.75903C97.8976 6.75903 98.595 6.97023 99.1123 7.39263C99.6374 7.81503 99.9352 8.37823 100.006 9.08223H98.2189C98.1718 8.78499 98.0465 8.5425 97.8427 8.35476C97.6389 8.15921 97.3607 8.06143 97.0081 8.06143C96.7024 8.06143 96.4556 8.14356 96.2675 8.30783C96.0794 8.46428 95.9853 8.69503 95.9853 9.0001C95.9853 9.24259 96.0559 9.44596 96.1969 9.61023C96.3458 9.76667 96.53 9.89574 96.7494 9.99743C96.9767 10.0991 97.2824 10.2125 97.6664 10.3377C98.1993 10.5254 98.6303 10.7014 98.9595 10.8657C99.2964 11.03 99.5825 11.2764 99.8176 11.6049C100.053 11.9334 100.17 12.3636 100.17 12.8956Z" fill="white"/>
<path d="M92.9664 15.1599H91.3089L87.5942 9.52795V15.1599H85.9367V6.87622H87.5942L91.3089 12.5551V6.87622H92.9664V15.1599Z" fill="white"/>
<path d="M82.7209 13.4939H79.3941L78.8064 15.1601H77.0548L80.1112 6.97021H82.0038L85.0485 15.1601H83.2969L82.7209 13.4939ZM82.2742 12.2385L81.0517 8.74195L79.8291 12.2385H82.2742Z" fill="white"/>
<path d="M74.74 15.1599L72.8004 11.9333H72.0715V15.1599H70.414V6.87622H73.5762C74.5402 6.87622 75.2729 7.11089 75.7745 7.58022C76.2839 8.04955 76.5386 8.66751 76.5386 9.43408C76.5386 10.0599 76.3622 10.5839 76.0096 11.0063C75.6648 11.4287 75.1632 11.7103 74.5049 11.8511L76.5738 15.1599H74.74ZM72.0715 10.7951H73.4351C74.3834 10.7951 74.8576 10.3767 74.8576 9.53968C74.8576 9.14075 74.74 8.83177 74.5049 8.61275C74.2776 8.38591 73.921 8.27249 73.4351 8.27249H72.0715V10.7951Z" fill="white"/>
<path d="M69.5012 6.87622V8.19035H67.2089V15.1599H65.5514V8.19035H63.2708V6.87622H69.5012Z" fill="white"/>
<path d="M56.8642 10.9477L60.379 15.1599H58.3689L55.3007 11.3701V15.1599H53.6432V6.87622H55.3007V10.5957L58.3806 6.87622H60.379L56.8642 10.9477Z" fill="white"/>
<path d="M52.1403 15.1599H50.4828L46.7681 9.52795V15.1599H45.1106V6.87622H46.7681L50.4828 12.5551V6.87622H52.1403V15.1599Z" fill="white"/>
<path d="M41.8908 13.4939H38.5641L37.9763 15.1601H36.2247L39.2811 6.97021H41.1738L44.2184 15.1601H42.4669L41.8908 13.4939ZM41.4441 12.2385L40.2216 8.74195L38.999 12.2385H41.4441Z" fill="white"/>
<path d="M34.0193 10.889C34.5209 10.9907 34.9206 11.2293 35.2184 11.6047C35.524 11.9724 35.6768 12.4065 35.6768 12.9071C35.6768 13.6033 35.4417 14.1548 34.9715 14.5615C34.5091 14.9605 33.8352 15.1599 32.9496 15.1599H29.3877V6.87622H32.8791C33.7176 6.87622 34.3602 7.06004 34.8069 7.42769C35.2615 7.79533 35.4888 8.3116 35.4888 8.97648C35.4888 9.49275 35.3516 9.91515 35.0773 10.2437C34.8109 10.5722 34.4582 10.7873 34.0193 10.889ZM31.0452 10.3493H32.5381C32.9535 10.3493 33.267 10.2593 33.4786 10.0794C33.698 9.89168 33.8077 9.62573 33.8077 9.28155C33.8077 8.93737 33.7019 8.67142 33.4903 8.48369C33.2787 8.29595 32.9535 8.20209 32.5146 8.20209H31.0452V10.3493ZM32.6204 13.8106C33.0593 13.8106 33.3963 13.7167 33.6314 13.529C33.8665 13.3335 33.9841 13.0519 33.9841 12.6842C33.9841 12.3166 33.8626 12.035 33.6196 11.8394C33.3845 11.636 33.0475 11.5343 32.6087 11.5343H31.0452V13.8106H32.6204Z" fill="white"/>
</svg>
