<?xml version="1.0" encoding="UTF-8"?>
<svg xmlns="http://www.w3.org/2000/svg" width="23" height="24" viewBox="0 0 23 24" fill="none">
  <g id="Group">
    <path id="Vector" d="M21.4992 5.81583C20.272 3.1664 17.5587 0 11.6412 0C6.48717 0 2.27398 3.06301 0.924128 7.79322C-0.303012 12.0582 1.19683 16.3102 4.63282 18.6107V24H7.3598V17.1632L6.69169 16.7884C3.40568 14.9661 2.7512 11.2956 3.55566 8.47819C4.37376 5.62197 6.92348 2.58481 11.6412 2.58481C15.2135 2.58481 17.6814 4.01939 19.004 6.84976C19.6176 8.18094 19.863 9.7706 19.7267 11.4378L19.154 17.4346L14.0273 17.3183V23.9871H16.7542V19.9677L21.6492 20.084L22.4536 11.6575C22.6309 9.55089 22.3036 7.53473 21.4992 5.81583Z" fill="#0781FE"></path>
    <path id="Vector_2" d="M15.0356 13.1568L14.4084 12.2392C14.6265 11.9161 14.7902 11.5542 14.8856 11.1665L16.0037 10.9209V9.89991L14.8856 9.66728C14.7902 9.27956 14.6265 8.91768 14.4084 8.59458L15.0219 7.66405L14.272 6.9403L13.2903 7.53481C12.9494 7.32802 12.5677 7.17293 12.1586 7.08246L11.9132 6.00977H10.836L10.577 7.08246C10.1679 7.17293 9.78615 7.32802 9.44528 7.53481L8.4772 6.9403L7.71365 7.66405L8.32722 8.59458C8.10906 8.91768 7.94544 9.27956 7.86363 9.66728L6.73193 9.89991V10.9209L7.86363 11.1665C7.95907 11.5542 8.12269 11.9161 8.34085 12.2392L7.72728 13.1697L8.49084 13.8934L9.47255 13.3119C9.81342 13.5187 10.1952 13.6737 10.6042 13.7642L10.8497 14.8369H11.9268L12.1723 13.7642C12.5813 13.6737 12.9631 13.5187 13.304 13.3119L14.2857 13.9064L15.0356 13.1568ZM11.3678 12.5752C10.0998 12.5752 9.07714 11.6059 9.07714 10.4039C9.07714 9.20201 10.0998 8.23271 11.3678 8.23271C12.6358 8.23271 13.6585 9.20201 13.6585 10.4039C13.6585 11.6059 12.6358 12.5752 11.3678 12.5752Z" fill="#0781FE"></path>
  </g>
</svg>
