<?xml version="1.0" encoding="UTF-8"?>
<svg xmlns="http://www.w3.org/2000/svg" width="17" height="24" viewBox="0 0 17 24" fill="none">
  <g id="Group">
    <path id="Vector" d="M16.4672 7.28699C16.5801 5.93226 15.9192 3.27986 12.7921 1.35472C12.099 0.926916 11.3737 0.470588 10.6484 0L6.58643 2.46702C7.73086 3.22282 8.972 4.02139 10.1326 4.7344C11.6961 5.7041 11.8089 6.75936 11.825 7.00178V7.0303V16.5276L14.5974 14.8449C14.5974 14.8449 15.9514 14.1462 16.2577 13.3761C16.5317 12.6774 16.4995 11.4082 16.4995 11.4082V7.28699H16.4672Z" fill="#0781FE"></path>
    <path id="Vector_2" d="M11.0673 19.0087C9.93898 18.3812 7.90802 17.326 6.84418 16.6843C5.28066 15.7288 5.16783 14.6736 5.15171 14.4169V14.3884V3.33667L2.26646 5.1192C2.26646 5.1192 1.36381 5.70387 0.993074 6.48819C0.509511 7.45788 0.509511 8.76983 0.509511 8.76983V14.1174C0.412798 15.4864 1.05755 18.1388 4.20071 20.0639C5.055 20.5916 6.21555 21.0764 7.15044 21.5898C8.50441 22.3313 9.6972 23.2868 10.2291 23.9998L14.2588 21.547C13.9364 21.1477 12.5986 19.85 11.0673 19.0087Z" fill="#0781FE"></path>
  </g>
</svg>
