<svg width="59" height="18" viewBox="0 0 59 18" fill="none" xmlns="http://www.w3.org/2000/svg">
<mask id="mask0_9_67595" style="mask-type:luminance" maskUnits="userSpaceOnUse" x="0" y="0" width="59" height="19">
<path d="M58.4432 0.000732422H0.443237V18.0007H58.4432V0.000732422Z" fill="white"/>
</mask>
<g mask="url(#mask0_9_67595)">
<path d="M28.6594 0.00805664H23.9374L21.0651 18.0008H25.787L28.6594 0.00805664Z" fill="#3960E2"/>
<path d="M17.0075 0.00805664L12.3705 11.2081L11.0931 5.22145C10.4729 2.31705 7.86636 0.236778 4.85006 0.236778L9.55727 18.0008H13.8177H14.7222L21.9584 0.00805664H17.0075Z" fill="#3960E2"/>
<path d="M11.9805 9.37219C9.34813 2.67394 0.443237 0.234253 0.443237 0.234253H7.69047C9.05276 0.234253 10.2305 1.17455 10.5074 2.48516L11.9805 9.37219Z" fill="#3960E2"/>
<path d="M54.1788 18.0008H58.4393L54.7622 0.00805664H49.8039L41.9955 18.0008H46.7175L47.8841 15.3905H53.5475L54.1788 18.0008ZM49.3978 12.0032L51.5502 7.19281L52.7205 12.0032H49.3978Z" fill="#3960E2"/>
<path d="M28.7474 16.9192L29.5965 13.3577C29.5965 13.3577 31.2505 14.3198 34.3517 14.3198C37.4529 14.3198 37.2978 12.7151 37.2978 12.6389C37.2978 12.5626 37.5489 11.5388 34.3406 10.2319C31.1323 8.92491 30.261 6.43435 30.8924 3.87849C31.5237 1.32261 35.7694 -1.40025 42.7028 0.810717L41.9977 4.64815C41.9977 4.64815 40.1923 3.45009 38.4645 3.50817C36.7403 3.56626 35.463 4.21975 35.4925 5.1782C35.522 6.13665 37.4492 6.94626 37.8405 7.11689C38.2319 7.28752 42.7582 9.04108 42.0751 12.4356C41.3922 15.8301 36.1459 19.8672 28.7474 16.9192Z" fill="#3960E2"/>
</g>
</svg>
