<?xml version="1.0" encoding="UTF-8"?>
<svg xmlns="http://www.w3.org/2000/svg" width="21" height="24" viewBox="0 0 21 24" fill="none">
  <g id="Group">
    <path id="Vector" d="M17.1054 6.6135L18.093 5.27607L16.1054 3.81595L15.056 5.22699C14.0436 4.71166 12.9202 4.35583 11.735 4.20859V2.45399H14.8214V0H6.17948V2.45399H9.26588V4.20859C4.32763 4.82209 0.500488 8.99387 0.500488 14.0614C0.500488 19.546 4.98195 24 10.5004 24C16.0189 24 20.5004 19.546 20.5004 14.0614C20.5127 11.092 19.1918 8.42945 17.1054 6.6135ZM10.5128 21.546C6.36466 21.546 2.98196 18.184 2.98196 14.0614C2.98196 9.93865 6.36466 6.57669 10.5128 6.57669C14.6609 6.57669 18.0436 9.93865 18.0436 14.0614C18.0436 18.1963 14.6609 21.546 10.5128 21.546Z" fill="#0781FE"></path>
    <path id="Vector_2" d="M11.4383 13.1415V8.40527H9.58643V14.074C9.58643 14.5771 10.0062 14.9942 10.5123 14.9942H16.216V13.1537H11.4383V13.1415Z" fill="#0781FE"></path>
  </g>
</svg>
